<svg id="Layer_1" data-name="Layer 1" xmlns="http://www.w3.org/2000/svg" xmlns:xlink="http://www.w3.org/1999/xlink" viewBox="0 0 189.89 98.15"><defs><style>.cls-1{fill:none;}.cls-2{fill:#ff5050;}.cls-3{fill:#00b4b4;}.cls-4{clip-path:url(#clip-path);}.cls-5{opacity:0.15;}.cls-6{fill:#fff;}.cls-7{fill:#009696;}.cls-8{fill:#ebf1f4;}.cls-9{fill:#11223d;}.cls-10{fill:#008282;}</style><clipPath id="clip-path" transform="translate(-532.13 -462.64)"><circle class="cls-1" cx="562.7" cy="530.21" r="30.57" transform="translate(-161.91 260.58) rotate(-22.89)"/></clipPath></defs><path class="cls-2" d="M546.85,505.43l-7.92,7.92a16.31,16.31,0,0,1-3.62-17.62,8.69,8.69,0,0,1,7,1,16.42,16.42,0,0,0,2,5.46A15.93,15.93,0,0,0,546.85,505.43Z" transform="translate(-532.13 -462.64)"/><path class="cls-3" d="M542.34,496.78a16.57,16.57,0,0,1-.13-5A1.92,1.92,0,0,0,539,490.2l0,0a16.29,16.29,0,0,0-3.62,5.49A8.73,8.73,0,0,1,542.34,496.78Z" transform="translate(-532.13 -462.64)"/><path class="cls-2" d="M588.83,509.74a16.45,16.45,0,0,1-2.72,3.61l-7.93-7.92a15.93,15.93,0,0,0,2.48-3.19,16.21,16.21,0,0,0,2-5.46,8.71,8.71,0,0,1,7-1A16.38,16.38,0,0,1,588.83,509.74Z" transform="translate(-532.13 -462.64)"/><path class="cls-3" d="M582.69,496.78a16.25,16.25,0,0,0,.13-5,1.93,1.93,0,0,1,3.25-1.61l0,0a16.44,16.44,0,0,1,3.62,5.49A8.75,8.75,0,0,0,582.69,496.78Z" transform="translate(-532.13 -462.64)"/><circle class="cls-3" cx="562.7" cy="530.21" r="30.57" transform="translate(-694.04 -202.06) rotate(-22.89)"/><g class="cls-4"><g class="cls-5"><circle class="cls-6" cx="562.7" cy="493.21" r="30.57" transform="translate(-679.65 -204.97) rotate(-22.89)"/></g></g><circle class="cls-7" cx="56.03" cy="68.25" r="2.38"/><path class="cls-7" d="M582.65,527.27a1.74,1.74,0,1,1-1.74-1.74A1.74,1.74,0,0,1,582.65,527.27Z" transform="translate(-532.13 -462.64)"/><path class="cls-7" d="M540.06,530.46a2.38,2.38,0,1,1-2.37-2.38A2.37,2.37,0,0,1,540.06,530.46Z" transform="translate(-532.13 -462.64)"/><path class="cls-7" d="M585.47,517.18a1.39,1.39,0,1,1-1.39-1.39A1.39,1.39,0,0,1,585.47,517.18Z" transform="translate(-532.13 -462.64)"/><path class="cls-7" d="M538.17,538.8a1.39,1.39,0,1,1-1.39-1.39A1.39,1.39,0,0,1,538.17,538.8Z" transform="translate(-532.13 -462.64)"/><path class="cls-7" d="M568.85,558a1.39,1.39,0,1,1-1.39-1.39A1.39,1.39,0,0,1,568.85,558Z" transform="translate(-532.13 -462.64)"/><circle class="cls-7" cx="12.44" cy="62.89" r="1.39"/><path class="cls-7" d="M543.26,513.35a1.74,1.74,0,1,1-1.73-1.74A1.73,1.73,0,0,1,543.26,513.35Z" transform="translate(-532.13 -462.64)"/><circle class="cls-7" cx="565.15" cy="522.06" r="13.46" transform="translate(-735.75 89.89) rotate(-45)"/><circle class="cls-8" cx="562.89" cy="519.8" r="13.46" transform="translate(-604.46 485.57) rotate(-76.72)"/><circle class="cls-2" cx="30.76" cy="57.16" r="9.04"/><path class="cls-9" d="M562.89,526.2a6.4,6.4,0,1,1,6.4-6.4A6.41,6.41,0,0,1,562.89,526.2Z" transform="translate(-532.13 -462.64)"/><circle class="cls-8" cx="26.02" cy="54.26" r="2.26"/><path class="cls-10" d="M567.24,506.31a14.59,14.59,0,0,0-4.35-.66,14.8,14.8,0,0,0-13.56,8.87h27.11A14.82,14.82,0,0,0,567.24,506.31Z" transform="translate(-532.13 -462.64)"/><path class="cls-7" d="M576.19,516.54h-26.6a1.76,1.76,0,1,1,0-3.52h26.6a1.76,1.76,0,0,1,0,3.52Z" transform="translate(-532.13 -462.64)"/><path class="cls-9" d="M579.17,536.79a12.17,12.17,0,0,0-4.79.47c-1.75.38-3.48.83-5.25,1.13a34.83,34.83,0,0,1-10.39.39c-1.81-.23-3.6-.62-5.38-1a39.34,39.34,0,0,0-5.37-1,4.75,4.75,0,0,0-3.53.88,4.11,4.11,0,0,0-1.25,3.44c.22,2.72,2.21,5.25,4.13,7a20.91,20.91,0,0,0,8,4.61,23.9,23.9,0,0,0,19.35-2.14,17.65,17.65,0,0,0,5.94-5.62,7.76,7.76,0,0,0,1.39-4.86A3.61,3.61,0,0,0,579.17,536.79Z" transform="translate(-532.13 -462.64)"/><path class="cls-6" d="M559.2,544.24c1.52,0,2.76-2.44,2.76-5.45v-.28h-5.51v.28C556.45,541.8,557.68,544.24,559.2,544.24Z" transform="translate(-532.13 -462.64)"/><path class="cls-6" d="M566.19,544.24c1.52,0,2.76-2.44,2.76-5.45v-.28h-5.52v.28C563.43,541.8,564.67,544.24,566.19,544.24Z" transform="translate(-532.13 -462.64)"/><path class="cls-6" d="M577.42,543.46c-.48.74.29,2.11,1.74,3.08l.47.31,1.77-2.64-.47-.32C579.48,542.93,577.91,542.73,577.42,543.46Z" transform="translate(-532.13 -462.64)"/><path class="cls-6" d="M573.81,545.58c-.91.79-.39,2.9,1.18,4.71l.51.59,3.32-2.87-.51-.58C576.74,545.61,574.73,544.78,573.81,545.58Z" transform="translate(-532.13 -462.64)"/><path class="cls-6" d="M548,543.46c.49.74-.29,2.11-1.74,3.08l-.46.31L544,544.21l.47-.32C545.91,542.93,547.48,542.73,548,543.46Z" transform="translate(-532.13 -462.64)"/><path class="cls-6" d="M551.58,545.58c.92.79.39,2.9-1.18,4.71l-.5.59L546.58,548l.5-.58C548.65,545.61,550.66,544.78,551.58,545.58Z" transform="translate(-532.13 -462.64)"/><path class="cls-2" d="M573,552.18l-.32.16-.1,0a21,21,0,0,1-3.29,1.26,23.8,23.8,0,0,1-6.61,1,23.19,23.19,0,0,1-9.89-2.21l-.12-.06-.29-.13,0,0A6.52,6.52,0,0,1,562.7,551a6.47,6.47,0,0,1,4.68-2A6.55,6.55,0,0,1,573,552.18Z" transform="translate(-532.13 -462.64)"/><path class="cls-7" d="M584.13,538.32c-1.39-3.18-4.8-3.53-7.85-3-4.18.71-8.25,2-12.51,2.12A43,43,0,0,1,552.38,536c-3.3-.77-7.76-2.21-10.34.89-1.92,2.31-1.31,5.66,0,8.12a19.56,19.56,0,0,0,7.46,7.45,26.7,26.7,0,0,0,22.43,1.89,22.24,22.24,0,0,0,9.57-6.6C583.5,545.29,585.53,541.55,584.13,538.32ZM579.31,546a19.44,19.44,0,0,1-8.37,5.76,24.24,24.24,0,0,1-8.3,1.45,23.12,23.12,0,0,1-11.76-3.12,17,17,0,0,1-6.41-6.34c-.8-1.54-1.35-3.79-.29-5.06a2.7,2.7,0,0,1,2.38-.9,18.89,18.89,0,0,1,4.26.72l.93.22a48.59,48.59,0,0,0,11,1.51c.39,0,.77,0,1.16,0a51.37,51.37,0,0,0,8.86-1.36c1.38-.3,2.68-.58,4-.8a9.94,9.94,0,0,1,1.73-.16c2.44,0,2.91,1.07,3.11,1.53C582.59,541.75,580.1,545.05,579.31,546Z" transform="translate(-532.13 -462.64)"/><path class="cls-3" d="M634.7,507.59c0,.27-.12.4-.37.4h-4.49c-.25,0-.37-.15-.37-.45,0-.85,0-2.13.1-3.84s.09-3,.09-3.85c0-.25,0-.38-.11-.39a33.79,33.79,0,0,0-1.7,3.92L626,507.89c-.09.19-.19.31-.32.34h-.51c-.44,0-.7-.08-.78-.25-.46-.93-1.06-2.29-1.81-4.06s-1.39-3.24-1.79-4.08a.32.32,0,0,0-.11-.14.61.61,0,0,0-.09.37c0,.83,0,2.07.06,3.73s.07,2.9.07,3.73q0,.45-.36.45h-4.24c-.17,0-.27,0-.31-.08a.55.55,0,0,1-.06-.29c0-.92.05-2.31.14-4.16s.13-3.23.13-4.16,0-2.82-.13-5.52c0-.7,0-1.75-.11-3.13v-.22c0-.17.16-.25.53-.25s1.16,0,2.09-.05,1.63,0,2.1,0c.09,0,.22.18.39.53l3.71,8.14c.26.55.48.82.66.82s.29-.31.6-.95c.85-1.78,2.12-4.45,3.79-8,.14-.33.3-.5.47-.5s.62,0,1.11,0l1.13,0a9.16,9.16,0,0,0,1-.07c.43,0,.76-.06,1-.06s.38.1.38.3c0,1,0,2.49-.11,4.48s-.11,3.48-.11,4.47,0,2.31.12,4.16S634.7,506.68,634.7,507.59Z" transform="translate(-532.13 -462.64)"/><path class="cls-3" d="M651.79,501.74a6.42,6.42,0,0,1-1.77,4.7,6.87,6.87,0,0,1-9.25,0,6.09,6.09,0,0,1-1.81-4.57,6.72,6.72,0,0,1,1.73-4.78,6.12,6.12,0,0,1,4.67-1.83,6.25,6.25,0,0,1,4.65,1.8A6.35,6.35,0,0,1,651.79,501.74Zm-4.17,0A2.69,2.69,0,0,0,647,500a2,2,0,0,0-1.61-.77,2,2,0,0,0-1.65.79,2.63,2.63,0,0,0-.61,1.75,2.66,2.66,0,0,0,.61,1.77,2.12,2.12,0,0,0,3.29,0A2.76,2.76,0,0,0,647.62,501.74Z" transform="translate(-532.13 -462.64)"/><path class="cls-3" d="M668.54,507.62a.36.36,0,0,1-.35.39,17.33,17.33,0,0,1-1.86.05,15.22,15.22,0,0,1-2-.07.47.47,0,0,1-.38-.52c0-.4,0-1,0-1.81s0-1.4,0-1.81,0-.78,0-1.4,0-1.09,0-1.41c0-1.16-.51-1.74-1.51-1.74a2.22,2.22,0,0,0-1.16.44c-.47.32-.71.64-.71.95v6.85a.41.41,0,0,1-.39.47,18.13,18.13,0,0,1-1.82.05,15.42,15.42,0,0,1-1.93-.07.4.4,0,0,1-.39-.42c0-.66,0-1.66,0-3s0-2.33,0-3a19.56,19.56,0,0,0-.49-5,.81.81,0,0,1,0-.19.28.28,0,0,1,.19-.28c.54-.06,1.25-.16,2.14-.28,1.34-.27,2.1-.4,2.27-.4s.16.29.21.86.13.86.22.86c-.09,0,.36-.3,1.36-.89a5.53,5.53,0,0,1,2.64-.88,4.61,4.61,0,0,1,2.69.76,2.87,2.87,0,0,1,1.21,2.44v4.05c0,.55,0,1.37,0,2.47S668.54,507.07,668.54,507.62Z" transform="translate(-532.13 -462.64)"/><path class="cls-3" d="M680.69,497.72a.59.59,0,0,1-.19.34,2.94,2.94,0,0,0-.71-.09,2.27,2.27,0,0,0-1.26.33,1.21,1.21,0,0,0-.61,1.08,1.91,1.91,0,0,0,.65,1.13,13.66,13.66,0,0,1,1.2,1.38,3.62,3.62,0,0,1,.65,2.07,4.06,4.06,0,0,1-.25,1.37,2.63,2.63,0,0,1-.74,1.17,8.75,8.75,0,0,1-2.19,1.37,6.41,6.41,0,0,1-2.51.59c-.16,0-.54-.46-1.13-1.38a5.58,5.58,0,0,1-.88-1.68c0-.08,0-.12.14-.14l1.79-.33q1.11-.36,1.11-1.17a2.1,2.1,0,0,0-.64-1.29c-.78-.86-1.18-1.31-1.21-1.36a3.32,3.32,0,0,1-.65-1.93,3.89,3.89,0,0,1,1.93-3.24,6.4,6.4,0,0,1,3.7-1.18c.13,0,.47.45,1,1.36A6.61,6.61,0,0,1,680.69,497.72Z" transform="translate(-532.13 -462.64)"/><path class="cls-3" d="M693.61,504.27a9.14,9.14,0,0,1-.1,1.15,11.15,11.15,0,0,0-.09,1.14.86.86,0,0,1-.08.46,1.34,1.34,0,0,1-.42.29,7.3,7.3,0,0,1-3.63.91q-3.66,0-3.66-2.81,0-.84.06-2.52t.06-2.52c0-.37-.21-.56-.65-.56h-.33c-.32,0-.48-.11-.48-.34s0-.34,0-.62,0-.49,0-.62,0-.45,0-.81,0-.64,0-.82.27-.26.81-.28c.31,0,.47-.09.5-.25a9.1,9.1,0,0,0,0-1.52c0-1.1,0-1.62,0-1.57,0-1,.09-1.47.28-1.47a4.67,4.67,0,0,1,1,.15,7.45,7.45,0,0,0,1,.19l1.95.25c.22,0,.32.08.32.21,0,.34,0,.85-.08,1.54s-.08,1.2-.08,1.55.12.62.36.62.75,0,1.35,0l1.36,0c.19,0,.28.07.28.19a7.27,7.27,0,0,1-.07.88c0,.39-.06.68-.06.88s0,.49,0,.88,0,.69,0,.89-.13.27-.37.27l-.85,0-.85,0h-.95c-.13,0-.2.19-.2.56v.9c0,.41,0,.71,0,.9a3.14,3.14,0,0,0,.24,1.47,1.46,1.46,0,0,0,1.34.55,3.92,3.92,0,0,0,.91-.15,4.6,4.6,0,0,1,.83-.14C693.52,504,693.61,504.08,693.61,504.27Z" transform="translate(-532.13 -462.64)"/><path class="cls-3" d="M709.17,501.09c0,.86-.27,1.35-.82,1.46l-2.63.28c-1,.11-2.49.24-4.47.4a1.78,1.78,0,0,0,1.08,1.25,3.76,3.76,0,0,0,1.67.36,4.76,4.76,0,0,0,2.28-.61l1-.61a3.83,3.83,0,0,1,.9,1.3,4.68,4.68,0,0,1,.63,1.48c0,.06-.07.16-.19.29a6.3,6.3,0,0,1-4.82,1.67,6.75,6.75,0,0,1-4.87-1.77,6.25,6.25,0,0,1-1.91-4.78,6.81,6.81,0,0,1,1.71-4.79,5.94,5.94,0,0,1,4.64-1.93,5.49,5.49,0,0,1,4.14,1.78A5.9,5.9,0,0,1,709.17,501.09Zm-4.44-.77a1.94,1.94,0,0,0-.56-1.38,1.76,1.76,0,0,0-1.33-.6,1.58,1.58,0,0,0-1.32.67,2.34,2.34,0,0,0-.49,1.46c0,.23.12.34.36.34a21.25,21.25,0,0,0,2.92-.29C704.59,500.48,704.73,500.41,704.73,500.32Z" transform="translate(-532.13 -462.64)"/><path class="cls-3" d="M721.58,500.08c0,.33-.18.49-.54.49l-.71,0-.69,0a2.25,2.25,0,0,0-1.43.33,1.72,1.72,0,0,0-.38,1.33c0,.37,0,.92,0,1.66s0,1.29,0,1.66,0,.61,0,1.09.05.85.05,1.09-.14.32-.42.34-1,.05-1.87.05-1.45,0-1.93-.07q-.42-.06-.42-.42c0-.68,0-1.69,0-3s0-2.36,0-3a18.24,18.24,0,0,0-.55-4.92,1.37,1.37,0,0,1,0-.19.24.24,0,0,1,.19-.25c.46-.05,1.14-.14,2-.28l2.07-.39c.15,0,.25.26.29.8s.12.8.23.8c-.12,0,.23-.23,1-.67a5,5,0,0,1,2.35-.67c.47,0,.71.11.71.31a9.89,9.89,0,0,1-.07,1c-.06.48-.08.83-.09,1s0,.57,0,1S721.58,499.92,721.58,500.08Z" transform="translate(-532.13 -462.64)"/><path d="M611.62,515.42h22.6v5.16h-3.28V547.7h3.28v5.16h-22.6V547.7h3.08V520.58h-3.08Zm8.84,32.28h4.76V520.58h-4.76Zm17,5.36V515.22h5.32v12.92h4.08v5.28h-4.08v19.64Z" transform="translate(-532.13 -462.64)"/><path d="M668.86,547.74h7.48V542.9H664.58v10.16h-6.2V542.9h-9.16v-5.32h27.12V515.22h5.88v37.84H668.86Zm3.48-21.56a8.53,8.53,0,0,1-.66,3.36,8.81,8.81,0,0,1-1.82,2.74,8.21,8.21,0,0,1-2.74,1.84,8.67,8.67,0,0,1-3.38.66H659.1a8.67,8.67,0,0,1-3.38-.66,8.21,8.21,0,0,1-2.74-1.84,8.81,8.81,0,0,1-1.82-2.74,8.53,8.53,0,0,1-.66-3.36v-2.36a8.53,8.53,0,0,1,.66-3.36,8.69,8.69,0,0,1,1.82-2.74,8.21,8.21,0,0,1,2.74-1.84,8.67,8.67,0,0,1,3.38-.66h4.64a8.67,8.67,0,0,1,3.38.66,8.21,8.21,0,0,1,2.74,1.84,8.69,8.69,0,0,1,1.82,2.74,8.53,8.53,0,0,1,.66,3.36Zm-16.08-.32a3.54,3.54,0,0,0,.92,2.4,3.32,3.32,0,0,0,1,.76,2.92,2.92,0,0,0,1.3.28h3.84a2.92,2.92,0,0,0,1.3-.28,3.32,3.32,0,0,0,1-.76,3.38,3.38,0,0,0,.68-1.1,3.57,3.57,0,0,0,.24-1.3v-1.72a3.44,3.44,0,0,0-.24-1.26,3.28,3.28,0,0,0-.68-1.1,3.55,3.55,0,0,0-1-.78,2.8,2.8,0,0,0-1.3-.3H659.5a2.8,2.8,0,0,0-1.3.3,3.55,3.55,0,0,0-1,.78,3.54,3.54,0,0,0-.92,2.36Z" transform="translate(-532.13 -462.64)"/><path d="M719.34,529.22H707.7v1.56H722V535h-34.4v-4.2h14.32v-1.56H690.3v-14h5.44v2.84h18.12v-2.84h5.48Zm.36,17.6H695.14v1.84H719.7v4.4H689.94V542.58H714.5v-1.76H689.94v-4.28H719.7Zm-24-22.2h18.12v-2H695.74Z" transform="translate(-532.13 -462.64)"/></svg>