<svg id="Layer_1" data-name="Layer 1" xmlns="http://www.w3.org/2000/svg" viewBox="0 0 48.41 120"><defs><style>.cls-1{fill:#00b4b4;}.cls-2{fill:#ff5050;}.cls-3{fill:#63b78a;}</style></defs><path class="cls-1" d="M627.48,456.84h3.59a2.75,2.75,0,0,1,2.75,2.75V485.9a0,0,0,0,1,0,0h-9.1a0,0,0,0,1,0,0V459.59a2.75,2.75,0,0,1,2.75-2.75Z" transform="translate(-702.56 -305.21) rotate(-12.46)"/><path d="M628,488.6a2.06,2.06,0,0,1-2-1.62l-5.29-23.93a6.62,6.62,0,1,1,12.92-2.86l5.29,23.94a2.07,2.07,0,0,1-1.57,2.46l-8.89,2A1.7,1.7,0,0,1,628,488.6Zm-.85-29.46a2.48,2.48,0,0,0-.54.06,2.44,2.44,0,0,0-1.55,1.09,2.39,2.39,0,0,0-.33,1.86l4.84,21.92,4.85-1.07-4.85-21.92a2.49,2.49,0,0,0-2.42-1.94Z" transform="translate(-615.66 -452.11)"/><path class="cls-1" d="M645.92,456.84H655a0,0,0,0,1,0,0v26.31a2.75,2.75,0,0,1-2.75,2.75h-3.59a2.75,2.75,0,0,1-2.75-2.75V456.84A0,0,0,0,1,645.92,456.84Z" transform="translate(568.22 619.89) rotate(-167.54)"/><path d="M651.77,488.6a1.7,1.7,0,0,1-.44-.05l-8.89-2a2.07,2.07,0,0,1-1.57-2.46l5.29-23.94a6.62,6.62,0,1,1,12.92,2.86L653.79,487A2.06,2.06,0,0,1,651.77,488.6Zm-6.42-5.6,4.85,1.07L655,462.15a2.48,2.48,0,0,0-4.84-1.07Z" transform="translate(-615.66 -452.11)"/><path class="cls-1" d="M22.41,2.07H26a2.75,2.75,0,0,1,2.75,2.75V31.13a0,0,0,0,1,0,0h-9.1a0,0,0,0,1,0,0V4.82a2.75,2.75,0,0,1,2.75-2.75Z"/><path d="M644.42,485.3h-9.1a2.07,2.07,0,0,1-2.07-2.06V458.72a6.62,6.62,0,0,1,13.24,0v24.52A2.07,2.07,0,0,1,644.42,485.3Zm-7-4.13h5V458.72a2.48,2.48,0,0,0-5,0Z" transform="translate(-615.66 -452.11)"/><path class="cls-2" d="M662,511.36c0,32.41-9.91,58.68-22.14,58.68s-22.14-26.27-22.14-58.68,9.91-32.23,22.14-32.23S662,479,662,511.36Z" transform="translate(-615.66 -452.11)"/><path d="M639.87,572.11c-13.57,0-24.21-26.69-24.21-60.75,0-15.37,2.23-24.79,7-29.65,4.57-4.65,10.68-4.68,17-4.64h.4c6.36,0,12.42,0,17,4.64,4.79,4.86,7,14.28,7,29.65C664.07,545.42,653.44,572.11,639.87,572.11Zm-.4-90.91c-5.65,0-10.53,0-13.85,3.41-3.92,4-5.82,12.73-5.82,26.75,0,33.87,10.38,56.62,20.07,56.62s20.07-22.75,20.07-56.62c0-14-1.9-22.77-5.82-26.75-3.36-3.41-8.28-3.44-14-3.41h-.6Z" transform="translate(-615.66 -452.11)"/><line class="cls-3" x1="31.62" y1="54.17" x2="46.34" y2="54.17"/><path d="M662,508.35H647.28a2.07,2.07,0,0,1,0-4.14H662a2.07,2.07,0,0,1,0,4.14Z" transform="translate(-615.66 -452.11)"/><line class="cls-3" x1="24.86" y1="54.17" x2="23.54" y2="54.17"/><path d="M640.53,508.35h-1.32a2.07,2.07,0,1,1,0-4.14h1.32a2.07,2.07,0,0,1,0,4.14Z" transform="translate(-615.66 -452.11)"/><line class="cls-3" x1="30.3" y1="62.4" x2="46.31" y2="62.4"/><path d="M662,516.57H646a2.07,2.07,0,0,1,0-4.13h16a2.07,2.07,0,0,1,0,4.13Z" transform="translate(-615.66 -452.11)"/><line class="cls-3" x1="5.03" y1="88.58" x2="19.66" y2="88.58"/><path d="M635.32,542.75H620.69a2.07,2.07,0,1,1,0-4.13h14.63a2.07,2.07,0,1,1,0,4.13Z" transform="translate(-615.66 -452.11)"/></svg>