<svg id="Layer_1" data-name="Layer 1" xmlns="http://www.w3.org/2000/svg" viewBox="0 0 60 60"><defs><style>.cls-1{fill:#b20000;}.cls-2{opacity:0.15;}.cls-3{fill:#fff;}.cls-4{fill:#900;}</style></defs><circle class="cls-1" cx="30" cy="30" r="30"/><g class="cls-2"><path class="cls-3" d="M473.5,431.5a30,30,0,0,0-25.73,14.57,30,30,0,0,0,52,.86A30,30,0,0,0,473.5,431.5Z" transform="translate(-443.5 -431.5)"/></g><path class="cls-4" d="M473.5,432.5a29,29,0,1,1-29,29,29,29,0,0,1,29-29m0-1a30,30,0,1,0,30,30,30,30,0,0,0-30-30Z" transform="translate(-443.5 -431.5)"/></svg>