<svg id="Layer_1" data-name="Layer 1" xmlns="http://www.w3.org/2000/svg" viewBox="0 0 74 60"><defs><style>.cls-1{fill:#b20000;}.cls-1,.cls-3{fill-rule:evenodd;}.cls-2{opacity:0.1;}.cls-3{fill:#fff;}.cls-4{fill:#900;}</style></defs><path class="cls-1" d="M619.24,518.67V537a5.11,5.11,0,0,0,5.14,5.08h32.89a5.11,5.11,0,0,0,5.14-5.08V518.67h15.42l-37-36.63-37,36.63Z" transform="translate(-603.83 -482.04)"/><g class="cls-2"><path class="cls-3" d="M619.24,537a5.11,5.11,0,0,0,5.14,5.08h16.45V482l-37,36.63h15.41Z" transform="translate(-603.83 -482.04)"/></g><path class="cls-4" d="M640.83,483.45l34.56,34.22h-14V537a4.12,4.12,0,0,1-4.14,4.08H624.38a4.12,4.12,0,0,1-4.14-4.08V517.67h-14l34.57-34.22m0-1.41-37,36.63h15.41V537a5.11,5.11,0,0,0,5.14,5.08h32.89a5.11,5.11,0,0,0,5.14-5.08V518.67h15.42l-37-36.63Z" transform="translate(-603.83 -482.04)"/></svg>