<svg id="Layer_1" data-name="Layer 1" xmlns="http://www.w3.org/2000/svg" viewBox="0 0 74 60"><defs><style>.cls-1{fill:#005eb2;}.cls-1,.cls-3{fill-rule:evenodd;}.cls-2{opacity:0.1;}.cls-3{fill:#fff;}.cls-4{fill:#005099;}</style></defs><path class="cls-1" d="M662.41,505.42V487.13a5.12,5.12,0,0,0-5.14-5.09H624.38a5.12,5.12,0,0,0-5.14,5.09v18.29H603.83l37,36.62,37-36.62Z" transform="translate(-603.83 -482.04)"/><g class="cls-2"><path class="cls-3" d="M619.24,487.13a5.12,5.12,0,0,1,5.14-5.09h16.45v60l-37-36.62h15.41Z" transform="translate(-603.83 -482.04)"/></g><path class="cls-4" d="M657.27,483a4.13,4.13,0,0,1,4.14,4.09v19.29h14l-34.56,34.22-34.57-34.22h14V487.13a4.13,4.13,0,0,1,4.14-4.09h32.89m0-1H624.38a5.12,5.12,0,0,0-5.14,5.09v18.29H603.83l37,36.62,37-36.62H662.41V487.13a5.12,5.12,0,0,0-5.14-5.09Z" transform="translate(-603.83 -482.04)"/></svg>